<svg width="24" height="24" viewBox="0 0 24 24" fill="none" xmlns="http://www.w3.org/2000/svg">
<path class="sidebar__account" d="M4.09044 9.61671C3.53184 10.1753 3.17864 10.9065 3.08828 11.6913C3.0296 12.2009 3 12.8042 3 13.5C3 14.6993 3.08779 16.4319 3.26362 18.6938C3.36481 19.9954 4.45054 21 5.7561 21H8.21806C8.54898 21 8.64976 20.9806 8.75262 20.9256C8.82845 20.885 8.88497 20.8285 8.92553 20.7527C8.98054 20.6498 9 20.549 9 20.2181V14.423C9 13.7379 9.06684 13.3918 9.25944 13.0316C9.43677 12.7 9.69999 12.4368 10.0316 12.2595C10.3917 12.0669 10.7378 12 11.4229 12H12.5771C13.2622 12 13.6083 12.0669 13.9684 12.2595C14.3 12.4368 14.5632 12.7 14.7406 13.0316C14.9332 13.3918 15 13.7379 15 14.423V20.2181C15 20.549 15.0195 20.6498 15.0745 20.7527C15.115 20.8285 15.1715 20.885 15.2474 20.9256C15.3502 20.9806 15.451 21 15.7819 21H18.2333C19.542 21 20.6292 19.9908 20.7264 18.6858C20.8967 16.4003 20.9817 14.6703 20.9817 13.5C20.9817 12.7959 20.9509 12.183 20.8897 11.6623C20.7979 10.8804 20.4452 10.1523 19.8885 9.59564L12.7795 2.48668C12.4737 2.18084 12.351 2.09784 12.1891 2.04878C12.0626 2.01043 11.9374 2.01043 11.8109 2.04878C11.649 2.09784 11.5263 2.18084 11.2205 2.48668L4.09044 9.61671ZM3.38333 8.9096L10.5134 1.77958C10.926 1.36699 11.1802 1.19501 11.5209 1.09177C11.8365 0.996102 12.1635 0.996102 12.4791 1.09177C12.8198 1.19501 13.074 1.36699 13.4866 1.77958L20.5956 8.88853C21.3113 9.60426 21.7648 10.5404 21.8829 11.5457C21.9489 12.1081 21.9817 12.7592 21.9817 13.5C21.9817 14.7001 21.8956 16.452 21.7236 18.7601C21.5875 20.5871 20.0654 22 18.2333 22H15.7819C15.3001 22 15.0433 21.9505 14.7758 21.8074C14.5257 21.6736 14.3264 21.4744 14.1927 21.2243C14.0496 20.9567 14 20.7 14 20.2181V14.423C14 13.8888 13.9633 13.6987 13.8587 13.5032C13.7746 13.3459 13.6541 13.2254 13.4968 13.1413C13.3014 13.0368 13.1112 13 12.5771 13H11.4229C10.8888 13 10.6986 13.0368 10.5032 13.1413C10.3459 13.2254 10.2254 13.3459 10.1413 13.5032C10.0367 13.6987 10 13.8888 10 14.423V20.2181C10 20.7 9.95042 20.9567 9.80734 21.2243C9.67359 21.4744 9.47432 21.6736 9.22422 21.8074C8.95668 21.9505 8.69995 22 8.21806 22H5.7561C3.92832 22 2.40829 20.5936 2.26663 18.7713C2.08896 16.4858 2 14.7301 2 13.5C2 12.7683 2.03144 12.1276 2.09484 11.5769C2.21102 10.5679 2.66513 9.62781 3.38333 8.9096Z" fill="black"/>
</svg>
