<svg width="20" height="21" viewBox="0 0 20 21" fill="none" xmlns="http://www.w3.org/2000/svg">
<path d="M2.09044 8.61671C1.53184 9.17531 1.17864 9.90646 1.08828 10.6913C1.0296 11.2009 1 11.8042 1 12.5C1 13.6993 1.08779 15.4319 1.26362 17.6938C1.36481 18.9954 2.45054 20 3.7561 20H6.21806C6.54898 20 6.64976 19.9806 6.75262 19.9256C6.82845 19.885 6.88497 19.8285 6.92553 19.7527C6.98054 19.6498 7 19.549 7 19.2181V13.423C7 12.7379 7.06684 12.3918 7.25944 12.0316C7.43677 11.7 7.69999 11.4368 8.03157 11.2595C8.39171 11.0669 8.73782 11 9.42291 11H10.5771C11.2622 11 11.6083 11.0669 11.9684 11.2595C12.3 11.4368 12.5632 11.7 12.7406 12.0316C12.9332 12.3918 13 12.7379 13 13.423V19.2181C13 19.549 13.0195 19.6498 13.0745 19.7527C13.115 19.8285 13.1715 19.885 13.2474 19.9256C13.3502 19.9806 13.451 20 13.7819 20H16.2333C17.542 20 18.6292 18.9908 18.7264 17.6858C18.8967 15.4003 18.9817 13.6703 18.9817 12.5C18.9817 11.7959 18.9509 11.183 18.8897 10.6623C18.7979 9.88041 18.4452 9.15232 17.8885 8.59564L10.7795 1.48668C10.4737 1.18084 10.351 1.09784 10.1891 1.04878C10.0626 1.01043 9.93742 1.01043 9.81091 1.04878C9.64903 1.09784 9.52631 1.18084 9.22047 1.48668L2.09044 8.61671ZM1.38333 7.9096L8.51336 0.779577C8.92595 0.366986 9.18025 0.195007 9.52085 0.0917711C9.83649 -0.00389767 10.1635 -0.00389767 10.4791 0.0917711C10.8198 0.195007 11.074 0.366986 11.4866 0.779577L18.5956 7.88853C19.3113 8.60426 19.7648 9.54038 19.8829 10.5457C19.9489 11.1081 19.9817 11.7592 19.9817 12.5C19.9817 13.7001 19.8956 15.452 19.7236 17.7601C19.5875 19.5871 18.0654 21 16.2333 21H13.7819C13.3001 21 13.0433 20.9505 12.7758 20.8074C12.5257 20.6736 12.3264 20.4744 12.1927 20.2243C12.0496 19.9567 12 19.7 12 19.2181V13.423C12 12.8888 11.9633 12.6987 11.8587 12.5032C11.7746 12.3459 11.6541 12.2254 11.4968 12.1413C11.3014 12.0368 11.1112 12 10.5771 12H9.42291C8.88878 12 8.69863 12.0368 8.50317 12.1413C8.34585 12.2254 8.22539 12.3459 8.14126 12.5032C8.03672 12.6987 8 12.8888 8 13.423V19.2181C8 19.7 7.95042 19.9567 7.80734 20.2243C7.67359 20.4744 7.47432 20.6736 7.22422 20.8074C6.95668 20.9505 6.69995 21 6.21806 21H3.7561C1.92832 21 0.408292 19.5936 0.266631 17.7713C0.0889634 15.4858 0 13.7301 0 12.5C0 11.7683 0.031438 11.1276 0.0948429 10.5769C0.211018 9.56786 0.665129 8.62781 1.38333 7.9096Z" fill="#F36F46"/>
</svg>
