<svg width="16" height="22" viewBox="0 0 16 22" fill="none" xmlns="http://www.w3.org/2000/svg">
<path d="M5 17.3543C4.1859 16.8248 3.71181 15.9416 3.29215 14.6035C3.18774 14.2705 3.18013 14.2465 3.13812 14.1187C2.9297 13.4848 2.73919 13.0582 2.46993 12.6773C1.23854 10.9354 0.5 9.03372 0.5 7.38095C0.5 3.30263 3.85977 0 8 0C12.1402 0 15.5 3.30263 15.5 7.38095C15.5 9.03659 14.7588 10.942 13.5238 12.6861C13.2546 13.0664 13.0643 13.4924 12.8565 14.1256C12.8146 14.2532 12.8068 14.2779 12.7029 14.6096C12.2851 15.9444 11.8124 16.8258 11 17.3544V19.4683C11 20.7278 10.0631 21.7906 8.81353 21.9486C8.5425 21.9829 8.27128 22 8 22C7.72872 22 7.45751 21.9829 7.18648 21.9486C5.93693 21.7907 5 20.7278 5 19.4683L5 17.3543ZM8 17.9996C7.32502 17.9996 6.65807 17.9172 6 17.7526L6 19.4683C6 20.224 6.56216 20.8617 7.31189 20.9565C7.5414 20.9855 7.77073 21 8 21C8.22927 21 8.4586 20.9855 8.68812 20.9565C9.43784 20.8617 10 20.224 10 19.4683V17.7526C9.34193 17.9172 8.67498 17.9996 8 17.9996ZM8 17C10.4686 17 11.0926 16.4065 11.7486 14.3109C11.8543 13.9731 11.8623 13.9477 11.9063 13.8137C12.1426 13.0939 12.3695 12.5859 12.7077 12.1083C13.8327 10.5196 14.5 8.80393 14.5 7.38095C14.5 3.85879 11.5918 1 8 1C4.40825 1 1.5 3.85879 1.5 7.38095C1.5 8.80139 2.16491 10.5135 3.28651 12.1001C3.62433 12.578 3.85133 13.0862 4.08809 13.8064C4.13222 13.9406 4.14004 13.9653 4.24633 14.3042C4.90507 16.4047 5.53051 17 8 17Z" fill="black"/>
</svg>
