<svg width="22" height="22" viewBox="0 0 22 22" fill="none" xmlns="http://www.w3.org/2000/svg">
<path d="M1 12.5154C1 14.5051 1.07761 16.4897 1.23284 18.4693C1.32902 19.6959 2.30339 20.6702 3.53001 20.7663C5.52004 20.9221 7.51003 21 9.5 21C11.4811 21 13.5444 20.9228 15.6899 20.7683C17.0015 20.6739 18.0157 19.5795 18.0103 18.2646C18.0034 16.5756 18 14.6439 18 12.4693C18 10.2923 18.0034 8.30117 18.0103 6.49597C18.0052 5.09632 16.8817 3.98125 15.501 3.98643C13.094 3.99548 11.0984 4 9.5141 4C7.9217 4 5.99566 3.99543 3.73593 3.98629C2.42097 3.98098 1.32666 4.99524 1.23227 6.30683C1.07741 8.45879 1 10.5283 1 12.5154ZM0 12.5154C0 10.5039 0.078301 8.41043 0.234852 6.23505C0.366994 4.39883 1.89902 2.97886 3.73997 2.9863C5.99845 2.99543 7.92318 3 9.5141 3C11.097 3 13.0914 2.99548 15.4972 2.98644C17.4302 2.97918 19.0031 4.54028 19.0103 6.47326C19.0034 8.30365 19 10.2935 19 12.4693C19 14.6426 19.0034 16.573 19.0103 18.2605C19.0178 20.1014 17.5979 21.6335 15.7617 21.7657C13.5927 21.9219 11.5055 22 9.5 22C7.48396 22 5.46793 21.9211 3.45194 21.7632C1.73468 21.6287 0.37055 20.2647 0.235896 18.5475C0.0786319 16.5419 0 14.5312 0 12.5154ZM5.53141 1C5.25527 1 5.03141 0.776142 5.03141 0.5C5.03141 0.223858 5.25527 0 5.53141 0H16.5C19.5376 0 22 2.46243 22 5.5V16.5117C22 16.7879 21.7761 17.0117 21.5 17.0117C21.2239 17.0117 21 16.7879 21 16.5117V5.5C21 3.01472 18.9853 1 16.5 1H5.53141Z" fill="#F36F46"/>
</svg>
