<svg width="24" height="24" viewBox="0 0 24 24" fill="none" xmlns="http://www.w3.org/2000/svg">
<g clip-path="url(#clip0)">
<path d="M12.5 17.7918C12.5108 17.7822 12.5214 17.7722 12.5317 17.7619L19.1464 11.1465C19.3417 10.9512 19.6583 10.9512 19.8535 11.1464C20.0488 11.3417 20.0488 11.6583 19.8536 11.8535L13.2389 18.4689C12.5559 19.1521 11.4485 19.1526 10.7649 18.4701L4.14676 11.8637C3.95133 11.6687 3.95104 11.3521 4.14613 11.1566C4.34122 10.9612 4.6578 10.9609 4.85324 11.156L11.4714 17.7624C11.4807 17.7717 11.4903 17.7808 11.5 17.7895V1.5C11.5 0.833334 12.5 0.833334 12.5 1.5L12.5 17.7918ZM18.6597 15.6337C18.862 15.4457 19.1784 15.4574 19.3663 15.6597C19.5543 15.862 19.5426 16.1784 19.3403 16.3663L13.1922 22.077C12.5212 22.7002 11.4832 22.7008 10.8116 22.0783L4.66011 16.3766C4.45758 16.1889 4.44558 15.8725 4.63329 15.67C4.82101 15.4675 5.13737 15.4555 5.33989 15.6432L11.4914 21.3449C11.7792 21.6117 12.2241 21.6114 12.5116 21.3443L18.6597 15.6337Z" fill="black"/>
</g>
<defs>
<clipPath id="clip0">
<rect width="24" height="24" fill="white"/>
</clipPath>
</defs>
</svg>
