<svg width="24" height="24" viewBox="0 0 24 24" fill="none" xmlns="http://www.w3.org/2000/svg">
<path d="M21.7916 11.5C21.7828 11.4902 21.7737 11.4806 21.7642 11.4711L18.1559 7.85308C17.9609 7.65756 17.9613 7.34098 18.1568 7.14597C18.3523 6.95097 18.6689 6.9514 18.8639 7.14692L22.4723 10.765C23.1543 11.4488 23.1534 12.5557 22.4703 13.2385L18.8535 16.8536C18.6582 17.0489 18.3416 17.0488 18.1464 16.8535C17.9511 16.6582 17.9512 16.3416 18.1465 16.1464L21.7634 12.5312C21.7736 12.521 21.7834 12.5106 21.7929 12.5H9.5C9.22386 12.5 9 12.2761 9 12C9 11.7239 9.22386 11.5 9.5 11.5H21.7916ZM14.9983 16.5047C15.0139 16.229 15.25 16.0181 15.5257 16.0337C15.8014 16.0493 16.0123 16.2854 15.9967 16.5611C15.9799 16.858 15.924 17.5566 15.8284 18.6644C15.6825 20.3551 14.3354 21.6974 12.6332 21.8515C11.5396 21.9506 10.3494 22 9.06266 22C7.75021 22 6.53831 21.9486 5.4267 21.8455C3.7249 21.6878 2.38063 20.3427 2.23841 18.6517C2.07938 16.7607 2 14.5546 2 12.0324C2 9.4751 2.0816 7.23238 2.24507 5.30342C2.39058 3.58651 3.77382 2.23117 5.50469 2.10586C6.48077 2.0352 7.66638 2 9.06266 2C10.4291 2 11.5938 2.03371 12.5577 2.10137C14.2899 2.22296 15.6766 3.57673 15.8247 5.29442C15.9236 6.44226 15.9817 7.16954 15.9992 7.48376C16.0146 7.75948 15.8036 7.99548 15.5279 8.01089C15.2522 8.0263 15.0162 7.81528 15.0008 7.53957C14.984 7.23935 14.9264 6.5171 14.8284 5.38033C14.7227 4.1548 13.7305 3.18616 12.4877 3.09892C11.5494 3.03305 10.4074 3 9.06266 3C7.68878 3 6.52647 3.03451 5.57689 3.10325C4.33503 3.19315 3.34531 4.16291 3.2415 5.38786C3.08059 7.28654 3 9.50163 3 12.0324C3 14.5283 3.07839 16.707 3.23489 18.5679C3.33636 19.7743 4.2981 20.7366 5.51901 20.8498C6.59857 20.9499 7.77987 21 9.06266 21C10.3204 21 11.4806 20.9518 12.5431 20.8556C13.7642 20.745 14.728 19.7847 14.8321 18.5785C14.9268 17.4816 14.9823 16.7878 14.9983 16.5047Z" fill="black"/>
</svg>
