<svg width="24" height="24" viewBox="0 0 24 24" fill="none" xmlns="http://www.w3.org/2000/svg">
<path d="M11.5 6.20815C11.4892 6.21778 11.4786 6.22777 11.4683 6.23813L4.85357 12.8535C4.65832 13.0488 4.34174 13.0488 4.14647 12.8536C3.95119 12.6583 3.95118 12.3417 4.14643 12.1465L10.7611 5.53109C11.4441 4.84789 12.5515 4.84737 13.2351 5.52989L19.8532 12.1363C20.0487 12.3313 20.049 12.6479 19.8539 12.8434C19.6588 13.0388 19.3422 13.0391 19.1468 12.844L12.5286 6.23759C12.5193 6.22825 12.5097 6.21921 12.5 6.21047V22.5C12.5 23.1667 11.5 23.1667 11.5 22.5L11.5 6.20815ZM5.34028 8.36634C5.13795 8.55428 4.82159 8.54261 4.63366 8.34028C4.44572 8.13795 4.45739 7.82159 4.65972 7.63365L10.8078 1.92299C11.4788 1.29976 12.5168 1.29921 13.1884 1.92173L19.3399 7.62341C19.5424 7.81113 19.5544 8.12749 19.3667 8.33001C19.179 8.53254 18.8626 8.54454 18.6601 8.35683L12.5086 2.65514C12.2208 2.38835 11.7759 2.38858 11.4884 2.65568L5.34028 8.36634Z" fill="black"/>
</svg>
