<svg width="20" height="20" viewBox="0 0 20 20" fill="none" xmlns="http://www.w3.org/2000/svg">
<path d="M0 10C0 4.47676 4.47639 0 10 0C15.5232 0 20 4.47639 20 10C20 15.5232 15.5236 20 10 20C4.47676 20 0 15.5236 0 10ZM1 10C1 14.9713 5.02903 19 10 19C14.9713 19 19 14.971 19 10C19 5.02869 14.971 1 10 1C5.02869 1 1 5.02903 1 10ZM10 16C9.44771 16 9 15.5523 9 15C9 14.4477 9.44771 14 10 14C10.5523 14 11 14.4477 11 15C11 15.5523 10.5523 16 10 16ZM10.5 12.0165C10.5 12.2927 10.2761 12.5165 10 12.5165C9.72386 12.5165 9.5 12.2927 9.5 12.0165V11.6577C9.5 10.788 10.062 10.018 10.8904 9.75287C11.4843 9.56279 11.8937 9.3479 12.1166 9.12607C12.6788 8.56638 13 7.80927 13 7C13 5.34315 11.6569 4 10 4C8.66097 4 7.49485 4.8852 7.12199 6.14998C7.0439 6.41485 6.76588 6.56627 6.50101 6.48819C6.23613 6.4101 6.08471 6.13208 6.1628 5.86721C6.66022 4.17994 8.21462 3 10 3C12.2091 3 14 4.79086 14 7C14 8.078 13.5709 9.08926 12.8221 9.83475C12.4684 10.1869 11.9268 10.4711 11.1952 10.7053C10.781 10.8378 10.5 11.2228 10.5 11.6577V12.0165Z" fill="black"/>
</svg>
