<svg width="24" height="24" viewBox="0 0 24 24" fill="none" xmlns="http://www.w3.org/2000/svg">
<path d="M6.51111 4.23554C5.30055 4.34026 4.34058 5.30023 4.23587 6.5108C4.07862 8.32864 4 10.1584 4 12C4 13.8417 4.07863 15.6716 4.23589 17.4895C4.34061 18.7001 5.30056 19.66 6.5111 19.7648C8.32376 19.9216 10.1534 20 12 20C13.8466 20 15.6762 19.9216 17.4889 19.7648C18.6994 19.66 19.6594 18.7001 19.7641 17.4895C19.9214 15.6716 20 13.8417 20 12C20 10.1584 19.9214 8.32864 19.7641 6.5108C19.6594 5.30023 18.6995 4.34026 17.4889 4.23554C15.6737 4.07852 13.8441 4 12 4C10.1559 4 8.32629 4.07852 6.51111 4.23554ZM6.42492 3.23926C8.26886 3.07975 10.1272 3 12 3C13.8728 3 15.7311 3.07975 17.5751 3.23926C19.2699 3.38587 20.6138 4.72983 20.7604 6.42462C20.9201 8.27119 21 10.1297 21 12C21 13.8704 20.9201 15.729 20.7604 17.5757C20.6138 19.2705 19.2699 20.6144 17.5751 20.761C15.7337 20.9203 13.8753 21 12 21C10.1247 21 8.26634 20.9204 6.42491 20.761C4.73015 20.6144 3.38622 19.2705 3.23961 17.5757C3.07987 15.729 3 13.8704 3 12C3 10.1297 3.07986 8.27119 3.23959 6.42462C3.38618 4.72983 4.73014 3.38587 6.42492 3.23926ZM16.5 11H7.5C6.83333 11 6.83333 10 7.5 10H16.5C17.1667 10 17.1667 11 16.5 11ZM16.5 14H7.5C6.83333 14 6.83333 13 7.5 13H16.5C17.1667 13 17.1667 14 16.5 14Z" fill="black"/>
</svg>
