<svg width="21" height="21" viewBox="0 0 21 21" fill="none" xmlns="http://www.w3.org/2000/svg">
<path fill-rule="evenodd" clip-rule="evenodd" d="M9.39664 8.11791L12.0963 5.42876C11.7867 3.95758 12.2269 2.40909 13.318 1.31797C14.467 0.168983 16.1237 -0.258926 17.6648 0.152628C18.0369 0.251984 18.1617 0.716956 17.8894 0.989253L16.1464 2.73218C15.5607 3.31797 15.5607 4.26771 16.1464 4.8535C16.7322 5.43929 17.682 5.43929 18.2678 4.8535L20.0107 3.11057C20.283 2.83828 20.748 2.96307 20.8473 3.33512C21.2589 4.87623 20.831 6.53294 19.682 7.68193C18.6 8.76389 17.068 9.20627 15.6066 8.91089L13.5176 11.0028C14.5927 12.0756 17.685 15.1574 19.0999 16.5789C19.6655 17.0503 20 17.7482 20 18.4999C20 19.8807 18.8807 20.9999 17.5 20.9999C16.8693 20.9999 16.2739 20.7648 15.8124 20.3444C15.7564 20.292 15.72 20.2563 15.693 20.2274C14.2547 18.7925 11.0835 15.6145 9.99783 14.5273L4.33578 20.197C3.86588 20.7051 3.20599 20.9999 2.5 20.9999C1.11929 20.9999 0 19.8807 0 18.4999C0 17.7418 0.340208 17.0386 0.914032 16.5673L7.12798 10.3777L3.21407 6.4626L1.83329 5.9306C1.71813 5.88624 1.62344 5.80084 1.56746 5.69086L0.0658185 2.7409C-0.0318258 2.54907 0.00424933 2.31629 0.155374 2.16302L1.15701 1.14716C1.30932 0.9927 1.54384 0.954059 1.73764 1.0515L4.72459 2.55323C4.84466 2.61359 4.93537 2.71975 4.97628 2.84776L5.42866 4.26358L9.39664 8.11791ZM7.84547 9.68097L8.68359 8.81939L4.64211 4.89366C4.58315 4.83639 4.53923 4.76548 4.51421 4.68719L4.08768 3.35228L1.61358 2.1084L1.12051 2.60847L2.37168 5.06638L3.6725 5.56757C3.73772 5.59269 3.79694 5.63121 3.84635 5.68063L7.84547 9.68097ZM10.7061 13.8213C11.7941 14.9108 14.9641 18.0877 16.4095 19.5299C16.4314 19.553 16.4531 19.5745 16.4903 19.6093C16.7649 19.8594 17.1208 19.9999 17.5 19.9999C18.3284 19.9999 19 19.3284 19 18.4999C19 18.0427 18.7948 17.6201 18.4469 17.3365L18.4084 17.3017C17.0029 15.8894 13.8882 12.7854 12.8084 11.7078L10.7061 13.8213ZM14.0251 2.02507C13.1201 2.93008 12.7909 4.23861 13.1304 5.44898C13.1793 5.62332 13.1301 5.81049 13.0018 5.93827L1.60182 17.2937C1.20886 17.6128 1 18.0387 1 18.4999C1 19.3284 1.67157 19.9999 2.5 19.9999C2.92427 19.9999 3.31906 19.8236 3.61489 19.5042L15.096 8.00702C15.2227 7.88016 15.4076 7.83084 15.5806 7.87774C16.7835 8.20378 18.0776 7.87208 18.9749 6.97482C19.6372 6.31252 19.9914 5.43392 20.0003 4.53521L18.9749 5.56061C17.9986 6.53692 16.4157 6.53692 15.4393 5.56061C14.463 4.5843 14.463 3.00138 15.4393 2.02507L16.4647 0.999679C15.566 1.00853 14.6874 1.36277 14.0251 2.02507Z" fill="black"/>
</svg>
